<svg xmlns="http://www.w3.org/2000/svg" width="512" height="512" viewBox="0 0 512 512">
  <defs>
    <linearGradient id="dbg" x1="0%" y1="0%" x2="100%" y2="100%">
      <stop offset="0%" stop-color="#1a73e8" />
      <stop offset="100%" stop-color="#1557b0" />
    </linearGradient>
    <linearGradient id="dfold" x1="0%" y1="100%" x2="100%" y2="0%">
      <stop offset="0%" stop-color="#669df6" />
      <stop offset="100%" stop-color="#a8c7fa" />
    </linearGradient>
    <linearGradient id="sbg" x1="0%" y1="0%" x2="100%" y2="100%">
      <stop offset="0%" stop-color="#34a853" />
      <stop offset="100%" stop-color="#1e8e3e" />
    </linearGradient>
  </defs>
  <rect width="512" height="512" rx="80" fill="#f0f4f9" />
  <!-- Sheet behind -->
  <g opacity="0.3" transform="translate(32, 20)">
    <path d="M112 56 L336 56 L400 120 L400 430 C400 440 392 448 382 448 L130 448 C120 448 112 440 112 430 Z" fill="url(#sbg)" />
    <rect x="148" y="140" width="60" height="24" rx="2" fill="#fff" opacity="0.3" />
    <rect x="216" y="140" width="60" height="24" rx="2" fill="#fff" opacity="0.3" />
    <rect x="284" y="140" width="60" height="24" rx="2" fill="#fff" opacity="0.3" />
    <rect x="148" y="172" width="60" height="24" rx="2" fill="#fff" opacity="0.2" />
    <rect x="216" y="172" width="60" height="24" rx="2" fill="#fff" opacity="0.2" />
    <rect x="284" y="172" width="60" height="24" rx="2" fill="#fff" opacity="0.2" />
  </g>
  <!-- Doc in front -->
  <g>
    <path d="M96 56 L312 56 L372 116 L372 440 C372 450 364 458 354 458 L114 458 C104 458 96 450 96 440 Z" fill="url(#dbg)" />
    <path d="M312 56 L312 88 C312 102 322 116 338 116 L372 116 Z" fill="url(#dfold)" />
    <rect x="136" y="164" width="196" height="12" rx="6" fill="#fff" opacity="0.85" />
    <rect x="136" y="198" width="196" height="12" rx="6" fill="#fff" opacity="0.65" />
    <rect x="136" y="232" width="152" height="12" rx="6" fill="#fff" opacity="0.5" />
    <rect x="136" y="266" width="196" height="12" rx="6" fill="#fff" opacity="0.38" />
    <rect x="136" y="300" width="168" height="12" rx="6" fill="#fff" opacity="0.26" />
  </g>
</svg>
