<svg xmlns="http://www.w3.org/2000/svg" width="192" height="192" viewBox="0 0 192 192">
  <defs>
    <linearGradient id="dbg" x1="0%" y1="0%" x2="100%" y2="100%">
      <stop offset="0%" stop-color="#1a73e8" />
      <stop offset="100%" stop-color="#1557b0" />
    </linearGradient>
    <linearGradient id="dfold" x1="0%" y1="100%" x2="100%" y2="0%">
      <stop offset="0%" stop-color="#669df6" />
      <stop offset="100%" stop-color="#a8c7fa" />
    </linearGradient>
    <linearGradient id="sbg" x1="0%" y1="0%" x2="100%" y2="100%">
      <stop offset="0%" stop-color="#34a853" />
      <stop offset="100%" stop-color="#1e8e3e" />
    </linearGradient>
  </defs>
  <rect width="192" height="192" rx="32" fill="#f0f4f9" />
  <!-- Sheet behind -->
  <g opacity="0.3" transform="translate(14, 8)">
    <path d="M44 22 L120 22 L146 48 L146 164 C146 169 142 172 138 172 L52 172 C48 172 44 169 44 164 Z" fill="url(#sbg)" />
    <rect x="56" y="56" width="24" height="10" rx="1" fill="#fff" opacity="0.3" />
    <rect x="84" y="56" width="24" height="10" rx="1" fill="#fff" opacity="0.3" />
    <rect x="112" y="56" width="20" height="10" rx="1" fill="#fff" opacity="0.3" />
    <rect x="56" y="70" width="24" height="10" rx="1" fill="#fff" opacity="0.2" />
    <rect x="84" y="70" width="24" height="10" rx="1" fill="#fff" opacity="0.2" />
    <rect x="112" y="70" width="20" height="10" rx="1" fill="#fff" opacity="0.2" />
  </g>
  <!-- Doc in front -->
  <g>
    <path d="M36 22 L116 22 L142 48 L142 166 C142 171 138 174 134 174 L44 174 C40 174 36 171 36 166 Z" fill="url(#dbg)" />
    <path d="M116 22 L116 38 C116 43 120 48 126 48 L142 48 Z" fill="url(#dfold)" />
    <rect x="52" y="66" width="72" height="5" rx="2.5" fill="#fff" opacity="0.85" />
    <rect x="52" y="80" width="72" height="5" rx="2.5" fill="#fff" opacity="0.65" />
    <rect x="52" y="94" width="54" height="5" rx="2.5" fill="#fff" opacity="0.5" />
    <rect x="52" y="108" width="72" height="5" rx="2.5" fill="#fff" opacity="0.38" />
    <rect x="52" y="122" width="62" height="5" rx="2.5" fill="#fff" opacity="0.26" />
  </g>
</svg>
