<svg xmlns="http://www.w3.org/2000/svg" viewBox="0 0 512 512" width="512" height="512">
  <defs>
    <linearGradient id="dbg" x1="0%" y1="0%" x2="100%" y2="100%">
      <stop offset="0%" stop-color="#1a73e8" />
      <stop offset="100%" stop-color="#1557b0" />
    </linearGradient>
    <linearGradient id="dfold" x1="0%" y1="100%" x2="100%" y2="0%">
      <stop offset="0%" stop-color="#669df6" />
      <stop offset="100%" stop-color="#a8c7fa" />
    </linearGradient>
    <linearGradient id="sbg" x1="0%" y1="0%" x2="100%" y2="100%">
      <stop offset="0%" stop-color="#34a853" />
      <stop offset="100%" stop-color="#1e8e3e" />
    </linearGradient>
    <linearGradient id="sfold" x1="0%" y1="100%" x2="100%" y2="0%">
      <stop offset="0%" stop-color="#81c995" />
      <stop offset="100%" stop-color="#a8dab5" />
    </linearGradient>
  </defs>

  <!-- ═══ SHEET (behind, offset right+down, slightly visible) ═══ -->
  <g opacity="0.35" transform="translate(40, 28)">
    <!-- Sheet body -->
    <path d="M72 56 C72 44 82 34 94 34 L356 34 L440 118 L440 458 C440 470 430 480 418 480 L94 480 C82 480 72 470 72 458 Z" fill="url(#sbg)" />
    <!-- Corner fold -->
    <path d="M356 34 L356 86 C356 102 368 118 386 118 L440 118 Z" fill="url(#sfold)" />
    <!-- Grid cells -->
    <rect x="120" y="156" width="72" height="28" rx="2" fill="#fff" opacity="0.3" />
    <rect x="200" y="156" width="72" height="28" rx="2" fill="#fff" opacity="0.3" />
    <rect x="280" y="156" width="72" height="28" rx="2" fill="#fff" opacity="0.3" />
    <rect x="120" y="192" width="72" height="28" rx="2" fill="#fff" opacity="0.2" />
    <rect x="200" y="192" width="72" height="28" rx="2" fill="#fff" opacity="0.2" />
    <rect x="280" y="192" width="72" height="28" rx="2" fill="#fff" opacity="0.2" />
    <rect x="120" y="228" width="72" height="28" rx="2" fill="#fff" opacity="0.12" />
    <rect x="200" y="228" width="72" height="28" rx="2" fill="#fff" opacity="0.12" />
    <rect x="280" y="228" width="72" height="28" rx="2" fill="#fff" opacity="0.12" />
    <!-- Grid lines -->
    <line x1="120" y1="184" x2="352" y2="184" stroke="#fff" stroke-width="1.5" opacity="0.3" />
    <line x1="120" y1="220" x2="352" y2="220" stroke="#fff" stroke-width="1" opacity="0.2" />
    <line x1="192" y1="156" x2="192" y2="256" stroke="#fff" stroke-width="1" opacity="0.2" />
    <line x1="272" y1="156" x2="272" y2="256" stroke="#fff" stroke-width="1" opacity="0.15" />
  </g>

  <!-- ═══ DOCUMENT (front, main position) ═══ -->
  <g>
    <!-- Shadow under doc -->
    <path d="M52 80 C52 68 62 58 74 58 L328 58 L408 138 L408 468 C408 480 398 490 386 490 L74 490 C62 490 52 480 52 468 Z" fill="#000" opacity="0.08" />
    <!-- Document body -->
    <path d="M48 72 C48 60 58 50 70 50 L324 50 L404 130 L404 460 C404 472 394 482 382 482 L70 482 C58 482 48 472 48 460 Z" fill="url(#dbg)" />
    <!-- Corner fold -->
    <path d="M324 50 L324 98 C324 114 336 130 354 130 L404 130 Z" fill="url(#dfold)" />
    <!-- Text lines -->
    <rect x="104" y="180" width="220" height="14" rx="7" fill="#fff" opacity="0.85" />
    <rect x="104" y="218" width="220" height="14" rx="7" fill="#fff" opacity="0.65" />
    <rect x="104" y="256" width="172" height="14" rx="7" fill="#fff" opacity="0.5" />
    <rect x="104" y="294" width="220" height="14" rx="7" fill="#fff" opacity="0.38" />
    <rect x="104" y="332" width="192" height="14" rx="7" fill="#fff" opacity="0.26" />
  </g>
</svg>
