<?xml version="1.0" encoding="UTF-8"?>
<svg version="1.1" xmlns="http://www.w3.org/2000/svg" width="1024" height="1024" viewBox="0 0 1024 1024">
<path d="M0 0 C3.37467255 1.12489085 3.57939839 1.48344788 5.2265625 4.421875 C5.6184375 5.11796875 6.0103125 5.8140625 6.4140625 6.53125 C6.81367187 7.2634375 7.21328125 7.995625 7.625 8.75 C8.23601562 9.82507813 8.23601562 9.82507813 8.859375 10.921875 C10.8927777 14.5846931 12.51704148 17.76994952 13 22 C13.63421875 22.14695312 14.2684375 22.29390625 14.921875 22.4453125 C21.79154746 24.09631113 28.59080715 25.96673539 35.375 27.9375 C36.23061523 28.17807129 37.08623047 28.41864258 37.96777344 28.66650391 C45.31210854 30.83413277 50.51218838 33.51760544 55 40 C55.9766447 42.92993411 56.13739066 44.85735981 56.16113281 47.91113281 C56.17074036 48.90937073 56.1803479 49.90760864 56.19024658 50.93609619 C56.1966214 52.55327545 56.1966214 52.55327545 56.203125 54.203125 C56.20882507 55.31427673 56.21452515 56.42542847 56.22039795 57.57025146 C56.22984985 59.9239405 56.23638268 62.27764279 56.24023438 64.63134766 C56.24992421 68.22191667 56.28094008 71.81190948 56.3125 75.40234375 C56.31903175 77.69010077 56.32428155 79.97786188 56.328125 82.265625 C56.3404718 83.33564758 56.3528186 84.40567017 56.36553955 85.50811768 C56.34527033 92.33530837 55.59265804 97.07798545 51.7734375 102.85546875 C46.6586405 107.72738432 40.2659673 108.61246825 33.58984375 109.98828125 C28.29926841 111.09513866 23.21454611 112.7236109 18.09008789 114.42602539 C15.25502745 115.35497252 13.00796224 116 10 116 C9.91492188 116.64453125 9.82984375 117.2890625 9.7421875 117.953125 C8.7202264 122.14854426 6.96943426 125.85654406 5.125 129.75 C4.73441406 130.57822266 4.34382813 131.40644531 3.94140625 132.25976562 C0.28177132 139.80274358 -4.11592318 146.72554355 -8.8125 153.65625 C-11.07794358 156.80926945 -11.07794358 156.80926945 -12 160 C-11.24164746 162.37977347 -11.24164746 162.37977347 -9.98046875 164.9296875 C-9.53509766 165.89003906 -9.08972656 166.85039063 -8.63085938 167.83984375 C-8.15455078 168.84144531 -7.67824219 169.84304688 -7.1875 170.875 C-6.26349133 172.85117388 -5.34028701 174.82772411 -4.41796875 176.8046875 C-4.00313232 177.68108887 -3.5882959 178.55749023 -3.16088867 179.46044922 C-0.78064839 184.66744383 0.97894012 189.17899046 0 195 C-1.95210618 199.84483117 -4.4470135 202.66721304 -8.375 206.0625 C-12.77640333 209.9000872 -16.9212974 213.86819928 -20.99755859 218.04858398 C-23.32628259 220.43359515 -25.66296759 222.81063181 -28 225.1875 C-28.7940625 226.00669922 -29.588125 226.82589844 -30.40625 227.66992188 C-31.56640625 228.84458008 -31.56640625 228.84458008 -32.75 230.04296875 C-33.44609375 230.75477295 -34.1421875 231.46657715 -34.859375 232.19995117 C-39.39665548 236.01534454 -44.09139203 236.61268516 -49.85644531 236.50341797 C-56.11691427 235.5008483 -61.42339686 232.15159258 -66.875 229.0625 C-69.2422121 227.75194266 -71.61659488 226.45557169 -73.9921875 225.16015625 C-75.54462158 224.28822632 -75.54462158 224.28822632 -77.12841797 223.39868164 C-80.9138882 221.55486605 -83.41597915 220.55860138 -87.54516602 221.70922852 C-88.43905029 222.09522217 -89.33293457 222.48121582 -90.25390625 222.87890625 C-91.26420898 223.30220215 -92.27451172 223.72549805 -93.31542969 224.16162109 C-94.38696289 224.62391113 -95.45849609 225.08620117 -96.5625 225.5625 C-103.85770206 228.6520447 -110.94044547 231.38648239 -118.64916992 233.23803711 C-126.08624554 234.90101692 -126.08624554 234.90101692 -132.0625 239.2578125 C-133.15908069 241.79004818 -133.88630879 244.21689358 -134.47900391 246.90771484 C-135.6178081 251.48107564 -137.34585835 255.8816742 -138.9375 260.3125 C-139.25041992 261.25544922 -139.56333984 262.19839844 -139.88574219 263.16992188 C-141.89070893 268.96113596 -144.15093324 274.04919948 -149 278 C-152.52154404 279.64699195 -155.33891571 280.25999314 -159.21411133 280.30639648 C-160.7364312 280.33037758 -160.7364312 280.33037758 -162.289505 280.35484314 C-163.9193055 280.36288719 -163.9193055 280.36288719 -165.58203125 280.37109375 C-166.71017746 280.38012222 -167.83832367 280.3891507 -169.00065613 280.39845276 C-171.38525748 280.41294522 -173.7698985 280.42183949 -176.15454102 280.42553711 C-179.78926141 280.437424 -183.42227874 280.48661502 -187.05664062 280.53710938 C-189.37759591 280.54657522 -191.69856159 280.55380948 -194.01953125 280.55859375 C-195.6402227 280.58789223 -195.6402227 280.58789223 -197.2936554 280.61778259 C-203.94867072 280.57829618 -209.03813537 279.71952105 -214 275 C-215.77648493 272.11585463 -216.88659227 269.19296605 -218 266 C-218.78463306 263.9914735 -219.57119557 261.9837 -220.359375 259.9765625 C-221.15913933 257.86046475 -221.95597636 255.74325851 -222.75 253.625 C-223.16121094 252.54605469 -223.57242188 251.46710938 -223.99609375 250.35546875 C-224.38410156 249.32292969 -224.77210938 248.29039062 -225.171875 247.2265625 C-225.5234668 246.29408691 -225.87505859 245.36161133 -226.23730469 244.40087891 C-227 242 -227 242 -227 239 C-227.93549683 238.76978149 -227.93549683 238.76978149 -228.88989258 238.53491211 C-236.37584143 236.60215648 -243.5699239 234.06186341 -250.78051758 231.29370117 C-252.69285638 230.56044618 -254.60881774 229.8373398 -256.52539062 229.11523438 C-266.7908145 225.20331906 -266.7908145 225.20331906 -271.51953125 222.52734375 C-274.84170635 220.68929047 -274.84170635 220.68929047 -278.01171875 221.51171875 C-278.99785156 222.00285156 -279.98398437 222.49398437 -281 223 C-281.60021973 223.28053223 -282.20043945 223.56106445 -282.81884766 223.85009766 C-284.83676457 224.80122095 -286.82427236 225.80089583 -288.8125 226.8125 C-289.52245117 227.16634766 -290.23240234 227.52019531 -290.96386719 227.88476562 C-294.69210527 229.75826925 -298.23358327 231.74820287 -301.75 234 C-306.79829163 236.85843768 -312.36818548 237.10204198 -318 236 C-322.14575816 233.4917723 -325.51521756 230.71637666 -328.8984375 227.26171875 C-329.79046875 226.35873047 -330.6825 225.45574219 -331.6015625 224.52539062 C-332.51679688 223.58888672 -333.43203125 222.65238281 -334.375 221.6875 C-339.87208343 216.08500375 -345.32383179 210.5325401 -351.33666992 205.47900391 C-354.78931995 202.40896811 -358.65704324 198.71681966 -359.25585938 193.97314453 C-359.50751177 186.91429496 -357.73532491 182.07361048 -354.5 175.875 C-354.07074219 175.01390625 -353.64148438 174.1528125 -353.19921875 173.265625 C-352.15015327 171.16749405 -351.0840017 169.08023257 -350 167 C-343.91707115 166.77610964 -337.83658105 166.61355871 -331.75048828 166.50561523 C-329.68430773 166.46058599 -327.61841024 166.39933887 -325.55322266 166.32104492 C-306.17254572 165.60514836 -306.17254572 165.60514836 -299.88671875 171.3125 C-298.57492497 172.86140687 -297.27823318 174.42328336 -296 176 C-270.11243507 196.44475957 -236.92843713 210.90037939 -204 214 C-202.92492187 214.10957031 -201.84984375 214.21914063 -200.7421875 214.33203125 C-178.15990273 216.29684721 -155.87484652 215.03642972 -134 209 C-133.34467285 208.82098145 -132.6893457 208.64196289 -132.01416016 208.45751953 C-110.37312007 202.42429249 -88.67610001 192.99590253 -71 179 C-70.16210938 178.35289062 -69.32421875 177.70578125 -68.4609375 177.0390625 C-62.39788461 172.28998392 -56.63142479 167.25177817 -51 162 C-49.87271484 160.95392578 -49.87271484 160.95392578 -48.72265625 159.88671875 C-23.04568719 135.20253233 -4.75006305 97.27264734 -3.94177246 61.41703796 C-3.95034881 58.58705045 -3.99174809 55.75921773 -4.04296875 52.9296875 C-4.06536798 50.79428023 -4.08682218 48.65886288 -4.10742188 46.5234375 C-4.14433013 43.20609465 -4.18724343 39.88928329 -4.24682617 36.57226562 C-4.46583355 23.74168505 -4.3953114 12.1813269 0 0 Z " fill="#434343" transform="translate(692,366)"/>
<path d="M0 0 C1.62350876 -0.01354271 1.62350876 -0.01354271 3.27981567 -0.02735901 C5.56428269 -0.04183459 7.84879091 -0.05074153 10.13330078 -0.05444336 C13.61432172 -0.06634304 17.09357125 -0.11556076 20.57421875 -0.16601562 C22.79947056 -0.17548039 25.0247332 -0.18271517 27.25 -0.1875 C28.28357635 -0.20703232 29.31715271 -0.22656464 30.38204956 -0.24668884 C37.03609742 -0.2054669 41.67998056 0.90657857 46.7578125 5.37109375 C50.90152665 11.1062875 53.01563103 17.89152302 55.4453125 24.49609375 C55.84814453 25.56730469 56.25097656 26.63851562 56.66601562 27.7421875 C58.35131369 32.2758369 59.9172521 36.59584582 60.7578125 41.37109375 C61.4278833 41.54415039 62.0979541 41.71720703 62.78833008 41.89550781 C69.47022533 43.66337134 75.95969204 45.73670025 82.4453125 48.12109375 C83.39140381 48.46454834 84.33749512 48.80800293 85.31225586 49.16186523 C91.9324143 51.60004706 98.40776898 54.27513247 104.74682617 57.37597656 C108.63490651 59.20031438 110.6576028 59.48556094 114.7578125 58.37109375 C116.41519857 57.69614772 118.05086746 56.96605618 119.6640625 56.19140625 C120.57285156 55.75699219 121.48164062 55.32257813 122.41796875 54.875 C123.82369141 54.19244141 123.82369141 54.19244141 125.2578125 53.49609375 C126.66353516 52.82513672 126.66353516 52.82513672 128.09765625 52.140625 C133.34844265 49.61743249 133.34844265 49.61743249 138.41259766 46.74536133 C141.04485092 45.2028927 142.60655487 44.93842803 145.6328125 44.93359375 C146.43460938 44.91425781 147.23640625 44.89492188 148.0625 44.875 C154.45319957 46.0512592 159.00156711 50.25100993 163.41015625 54.765625 C163.91398331 55.27606857 164.41781036 55.78651215 164.93690491 56.31242371 C166.5304165 57.92909739 168.11335079 59.55562367 169.6953125 61.18359375 C171.7838511 63.31896489 173.87689554 65.44984279 175.97265625 67.578125 C176.72390274 68.34273293 176.72390274 68.34273293 177.49032593 69.12278748 C180.93420903 72.60446661 184.48799417 75.89302182 188.23657227 79.04248047 C191.9157507 82.25578316 192.96407148 85.17360741 193.3203125 89.93359375 C193.17196789 94.52006528 191.84192232 97.66506591 189.72265625 101.7109375 C189.17085693 102.77562256 188.61905762 103.84030762 188.05053711 104.93725586 C187.62393799 105.74042236 187.19733887 106.54358887 186.7578125 107.37109375 C179.85742958 107.60103313 172.95804837 107.7576135 166.0546875 107.86547852 C163.71121306 107.91048329 161.36798768 107.97171044 159.02539062 108.05004883 C137.05285358 108.7659343 137.05285358 108.7659343 129.5390625 103.08984375 C127.93026427 101.53232195 126.33588017 99.9597436 124.7578125 98.37109375 C82.87062943 69.7040863 30.44112217 59.33158117 -19.39306641 67.81884766 C-62.51928135 76.17801631 -103.90257122 101.28079876 -129.2421875 137.37109375 C-145.77135467 161.94056815 -156.80998043 189.57967354 -157.375 219.53125 C-157.58997122 230.43336182 -158.65077809 238.5165083 -163.38525391 248.47949219 C-164.98644367 252.01397033 -166.28152509 255.66745312 -167.6171875 259.30859375 C-168.12460077 260.67202364 -168.63237537 262.03531916 -169.140625 263.3984375 C-169.50414062 264.37941406 -169.86765625 265.36039062 -170.2421875 266.37109375 C-178.25544135 264.94363152 -185.7693114 263.40636646 -193.3515625 260.3984375 C-196.20037428 259.38595439 -199.05413386 258.66148152 -201.99536133 257.97070312 C-208.47254688 256.43119356 -214.19446953 254.97461211 -218.2421875 249.37109375 C-219.92440355 245.76656368 -220.50020881 242.90749432 -220.53271484 238.94165039 C-220.5518544 237.34958519 -220.5518544 237.34958519 -220.57138062 235.72535706 C-220.57360626 234.58880173 -220.57583191 233.4522464 -220.578125 232.28125 C-220.5881102 230.51532753 -220.5881102 230.51532753 -220.59829712 228.71372986 C-220.6084121 226.2265682 -220.6131145 223.73937947 -220.61279297 221.25219727 C-220.61716761 217.45087965 -220.65350587 213.65072179 -220.69140625 209.84960938 C-220.69727432 207.43099355 -220.70124378 205.01237221 -220.703125 202.59375 C-220.72468155 200.89195335 -220.72468155 200.89195335 -220.74667358 199.15577698 C-220.70117254 191.28398441 -219.60720762 187.85429387 -214.12890625 182.18359375 C-210.01370051 179.59975686 -205.73384716 178.57138559 -201.0546875 177.37109375 C-194.62838919 175.68702422 -188.53225855 173.81455245 -182.44018555 171.140625 C-180.2421875 170.37109375 -180.2421875 170.37109375 -176.2421875 170.37109375 C-176.07348145 169.82654541 -175.90477539 169.28199707 -175.73095703 168.72094727 C-173.91111944 163.03593023 -171.69797819 157.68683968 -169.1171875 152.30859375 C-168.73191895 151.49293945 -168.34665039 150.67728516 -167.94970703 149.83691406 C-165.98351558 145.73915799 -163.92676887 141.74358717 -161.6171875 137.828125 C-161.19840332 137.1172876 -160.77961914 136.4064502 -160.34814453 135.67407227 C-159.54942658 134.341978 -158.73354412 133.01997051 -157.89794922 131.71069336 C-156.10825562 128.7459925 -155.24702437 126.63647666 -155.18359375 123.15625 C-157.00623347 116.63913603 -159.91833635 110.57906139 -162.73632812 104.43945312 C-165.47910869 98.18211392 -168.00968809 92.23636061 -166.2421875 85.37109375 C-164.40634448 82.1883712 -161.88821194 79.89427283 -159.2421875 77.37109375 C-158.24464764 76.351272 -157.25165416 75.32699173 -156.26220703 74.29931641 C-153.40784471 71.34091244 -150.52001778 68.4181261 -147.61791992 65.5065918 C-145.80506088 63.68396914 -144.0031673 61.8509339 -142.20117188 60.01757812 C-141.02930692 58.83918596 -139.85680216 57.66142963 -138.68359375 56.484375 C-138.15625137 55.94468582 -137.628909 55.40499664 -137.08558655 54.84895325 C-132.28844982 50.0796436 -126.93372814 45.33476055 -119.96875 44.73046875 C-113.95971664 45.09652741 -108.89081637 47.92247898 -103.6171875 50.62109375 C-102.61945313 51.11222656 -101.62171875 51.60335937 -100.59375 52.109375 C-96.39949565 54.18985831 -92.3082986 56.30145687 -88.34375 58.79296875 C-84.72993061 60.63173832 -84.01597586 60.43970079 -80.2421875 59.37109375 C-78.28919944 58.58333819 -76.35790206 57.74069355 -74.4453125 56.859375 C-73.32898438 56.35116211 -72.21265625 55.84294922 -71.0625 55.31933594 C-69.88429688 54.77954102 -68.70609375 54.23974609 -67.4921875 53.68359375 C-59.50316226 50.06483976 -51.52469067 46.51959861 -43.2421875 43.62109375 C-42.2217334 43.26204956 -42.2217334 43.26204956 -41.18066406 42.89575195 C-38.39579562 41.954536 -36.20504684 41.37109375 -33.2421875 41.37109375 C-33.16355469 40.47390625 -33.08492187 39.57671875 -33.00390625 38.65234375 C-32.16523503 32.83287295 -30.02481153 27.38486149 -28.0546875 21.87109375 C-27.68021484 20.76894531 -27.30574219 19.66679687 -26.91992188 18.53125 C-22.58272898 6.34615159 -22.58272898 6.34615159 -17.2421875 2.37109375 C-11.68280705 -0.20714594 -6.00760176 0.03104877 0 0 Z " fill="#444445" transform="translate(499.2421875,216.62890625)"/>
<path d="M0 0 C2.20344915 0.006958 4.40689981 0.01345298 6.61035156 0.01953125 C41.88718251 0.15260288 77.16412849 0.70286222 112.4375 1.1875 C111.17593102 5.0485921 109.8250701 8.66821121 108.01171875 12.3046875 C107.54443359 13.24183594 107.07714844 14.17898438 106.59570312 15.14453125 C106.11037109 16.10746094 105.62503906 17.07039063 105.125 18.0625 C104.65126953 19.01769531 104.17753906 19.97289062 103.68945312 20.95703125 C103.21830078 21.89675781 102.74714844 22.83648437 102.26171875 23.8046875 C101.83979248 24.64628418 101.41786621 25.48788086 100.9831543 26.35498047 C100.47308838 27.28971191 99.96302246 28.22444336 99.4375 29.1875 C99.1383626 29.84560134 98.8392252 30.50370268 98.53102303 31.18174648 C95.68306073 36.74045207 95.68306073 36.74045207 92.40757847 37.91606522 C89.8462809 38.17927777 87.39100888 38.18574266 84.81713867 38.1081543 C83.85390182 38.11104462 82.89066498 38.11393494 81.89823914 38.11691284 C78.7160646 38.11813125 75.53717162 38.06411901 72.35546875 38.01171875 C70.13976108 38.00653961 67.92403975 38.00560912 65.70832825 38.00874329 C59.87313432 38.00885599 54.03917564 37.96558401 48.20428467 37.90893555 C38.87621219 37.82049518 29.54850278 37.77508728 20.22002602 37.77243996 C16.96680497 37.76187731 13.715101 37.7190816 10.46220398 37.67375183 C8.45682201 37.66623431 6.451435 37.65992972 4.44604492 37.6550293 C3.5475885 37.6338353 2.64913208 37.6126413 1.72344971 37.59080505 C-5.41422219 37.62227308 -10.04099616 39.91597816 -15.24215412 44.74792004 C-18.10699816 47.87147436 -17.90041446 52.23421756 -17.84765625 56.2890625 C-17.67926288 58.41614762 -17.67926288 58.41614762 -15.8125 60.5625 C-11.81916242 63.44657714 -8.97323808 64.43989019 -4.0222168 64.62646484 C-2.90973068 64.67346527 -1.79724457 64.7204657 -0.65104675 64.76889038 C1.15042061 64.8330162 1.15042061 64.8330162 2.98828125 64.8984375 C5.55014788 65.01001159 8.1119963 65.12200457 10.67382812 65.234375 C14.69738013 65.40239511 18.72118717 65.5614084 22.74536133 65.71386719 C65.62754877 67.37754877 65.62754877 67.37754877 79.4375 81.1875 C85.67128924 89.16736288 89.00591509 96.71131354 88.8125 106.875 C88.80162354 107.66100586 88.79074707 108.44701172 88.77954102 109.25683594 C88.31570755 126.43092637 81.9598359 141.31567505 69.4375 153.1875 C68.93041504 153.67057617 68.42333008 154.15365234 67.90087891 154.65136719 C63.57386516 158.58816927 59.1427374 161.08315486 53.8125 163.4375 C53.07515625 163.77523437 52.3378125 164.11296875 51.578125 164.4609375 C49.53918595 165.38905671 47.4901876 166.29032743 45.4375 167.1875 C44.64601563 167.55359375 43.85453125 167.9196875 43.0390625 168.296875 C34.22699019 171.31362048 25.50306285 171.46595894 16.26708984 171.41455078 C14.86661792 171.41398548 13.46614541 171.41430554 12.06567383 171.41543579 C8.29360604 171.41600568 4.52166747 171.40431082 0.7496295 171.39028788 C-3.2034771 171.37771938 -7.1565872 171.37660522 -11.10971069 171.37423706 C-18.58217509 171.36804018 -26.05458042 171.3516538 -33.5270189 171.33153808 C-42.03977701 171.30912307 -50.55253804 171.29817161 -59.06531835 171.28814721 C-76.56441296 171.26728584 -94.06345022 171.23214498 -111.5625 171.1875 C-111.24785741 169.73956274 -110.93127872 168.2920461 -110.61387634 166.8447113 C-110.43778808 166.03858115 -110.26169981 165.232451 -110.08027554 164.40189266 C-109.53818898 162.08352801 -108.84427222 159.92534026 -107.94140625 157.72265625 C-107.6470166 156.98974365 -107.35262695 156.25683105 -107.04931641 155.50170898 C-106.74429199 154.75864502 -106.43926758 154.01558105 -106.125 153.25 C-103.82193239 147.50775596 -101.68588299 141.82154462 -100.0703125 135.83984375 C-99.5625 134.1875 -99.5625 134.1875 -98.5625 133.1875 C-97.12578472 133.08848119 -95.68424709 133.05842081 -94.24412537 133.05619812 C-93.31192673 133.05218994 -92.37972809 133.04818176 -91.41928101 133.04405212 C-89.87260239 133.0448452 -89.87260239 133.0448452 -88.29467773 133.0456543 C-87.21498215 133.04217987 -86.13528656 133.03870544 -85.02287292 133.03512573 C-82.66837013 133.02775188 -80.3138603 133.02241523 -77.95934868 133.01883507 C-74.23106579 133.01168995 -70.50291609 132.99603653 -66.77467346 132.97749329 C-56.17067317 132.9249425 -45.56676902 132.87663724 -34.96264648 132.86157227 C-28.48393188 132.85148272 -22.00554805 132.82212723 -15.52696419 132.78025246 C-13.05790778 132.76794578 -10.58880462 132.76282058 -8.11971855 132.76505089 C-4.65814933 132.76740737 -1.19752535 132.74520716 2.26391602 132.7175293 C3.28086548 132.72413071 4.29781494 132.73073212 5.34558105 132.73753357 C12.38739305 132.64530602 18.13758388 131.39804339 23.3125 126.36328125 C26.38718941 121.27082692 27.25509585 117.10922995 26.4375 111.1875 C26.1075 110.1975 25.7775 109.2075 25.4375 108.1875 C21.14791485 106.30739582 17.14892781 105.86036529 12.50390625 105.625 C11.51035629 105.57099533 11.51035629 105.57099533 10.49673462 105.51589966 C9.07258508 105.43934581 7.64823413 105.36646537 6.22372437 105.29693604 C3.96734719 105.18589306 1.7118841 105.06306913 -0.54370117 104.93701172 C-6.68801242 104.59561385 -12.83307869 104.2709843 -18.97949219 103.96972656 C-21.78445797 103.83207958 -24.58875897 103.68619613 -27.39282227 103.53125 C-29.96810732 103.38978379 -32.54415222 103.26129292 -35.12084961 103.1484375 C-48.97685993 102.36361889 -62.79394351 98.81296336 -72.4375 88.25 C-79.23115475 79.85406819 -80.74223516 72.91927691 -80.75 62.3125 C-80.76224609 61.43980469 -80.77449219 60.56710937 -80.78710938 59.66796875 C-80.79882494 54.47406676 -80.27589059 50.15021345 -78.5625 45.1875 C-78.29050781 44.35605469 -78.01851563 43.52460938 -77.73828125 42.66796875 C-71.52821075 26.17334711 -58.28809935 13.02136278 -42.3671875 5.72265625 C-28.27702743 -0.02333101 -14.98279609 -0.09643729 0 0 Z " fill="#2262AC" transform="translate(453.5625,344.8125)"/>
<path d="M0 0 C1.68101807 0.00848969 1.68101807 0.00848969 3.39599609 0.01715088 C6.95194417 0.03942208 10.50685989 0.08960323 14.0625 0.140625 C16.4830583 0.16070187 18.90363249 0.17895055 21.32421875 0.1953125 C27.23732743 0.23925653 33.14983993 0.30607626 39.0625 0.390625 C39.26631935 5.13488429 38.53508305 9.07744137 37.3125 13.65625 C36.94091699 15.08091419 36.57119101 16.50606376 36.203125 17.93164062 C35.91791992 19.03294312 35.91791992 19.03294312 35.62695312 20.15649414 C34.70691404 23.79805021 33.8805536 27.45939031 33.0625 31.125 C32.89931778 31.8559639 32.73613556 32.5869278 32.56800842 33.34004211 C32.06409637 35.60644845 31.5630916 37.87348315 31.0625 40.140625 C30.8865329 40.93375092 30.7105658 41.72687683 30.52926636 42.54403687 C28.63592767 51.08007896 26.7688428 59.61492491 25.125 68.203125 C23.12303854 78.63135609 20.63736385 88.94948102 18.22357178 99.28808594 C14.74114249 114.22582743 11.50241767 129.2055226 8.39898682 144.22628784 C6.37351492 153.97319259 4.22317897 163.66756963 2.0625 173.390625 C-18.7275 173.390625 -39.5175 173.390625 -60.9375 173.390625 C-60.27866329 168.11993135 -59.5556283 163.14909751 -58.484375 157.98046875 C-58.27374168 156.9585569 -58.27374168 156.9585569 -58.05885315 155.91600037 C-57.60504104 153.71934154 -57.14652789 151.52369932 -56.6875 149.328125 C-56.36992727 147.79966447 -56.05246402 146.2711812 -55.73510742 144.74267578 C-48.98384663 112.2901748 -48.98384663 112.2901748 -45.9375 100.578125 C-43.54788886 91.27224096 -41.85100126 81.83518679 -40.0859375 72.39453125 C-38.62491732 64.64577615 -36.85064495 57.0432048 -34.9375 49.390625 C-46.8175 49.390625 -58.6975 49.390625 -70.9375 49.390625 C-69.9475 46.420625 -68.9575 43.450625 -67.9375 40.390625 C-67.65720947 39.51978271 -67.37691895 38.64894043 -67.08813477 37.75170898 C-64.56972355 30.24155532 -61.94911837 22.51980752 -54.56640625 18.69921875 C-50.34815411 16.92326767 -45.99948076 15.59579346 -41.62011719 14.27832031 C-37.1257027 12.7910896 -32.9317598 10.72187176 -28.6875 8.640625 C-27.92646973 8.27501465 -27.16543945 7.9094043 -26.38134766 7.53271484 C-22.27087439 5.59934371 -22.27087439 5.59934371 -18.31237793 3.38421631 C-12.26854189 -0.12398289 -6.87034461 -0.13203283 0 0 Z " fill="#464646" transform="translate(634.9375,341.609375)"/>
<path d="M0 0 C18.14265843 -2.51846834 18.14265843 -2.51846834 24.01025391 1.3125 C27.58814091 4.93758868 30.04569167 9.29995994 32.57421875 13.68945312 C35.03134203 17.67133921 38.05660196 21.17537358 41.0625 24.75 C50 35.59509315 50 35.59509315 50 38 C50.66 38 51.32 38 52 38 C51.95875 37.030625 51.9175 36.06125 51.875 35.0625 C51.875 32.23483111 52.20822586 29.74523415 52.875 27 C54.18212144 21.60464768 54.83728381 16.15067148 55.53515625 10.6484375 C55.98799015 7.09426215 56.49330047 3.54689674 57 0 C63.6 0 70.2 0 77 0 C76.33844288 5.95401404 75.6110946 11.82930882 74.66015625 17.734375 C74.53313828 18.53425842 74.4061203 19.33414185 74.2752533 20.15826416 C73.87296387 22.68915984 73.46784026 25.21959133 73.0625 27.75 C72.66249091 30.25908183 72.2630757 32.76825747 71.86386108 35.27746582 C71.60485728 36.9041043 71.34528282 38.53065202 71.08511353 40.15710449 C70.50854001 43.76743422 69.93873621 47.37826132 69.39794922 50.99414062 C69.13715576 52.73727539 69.13715576 52.73727539 68.87109375 54.515625 C68.72470459 55.51368164 68.57831543 56.51173828 68.42749023 57.54003906 C68 60 68 60 67 63 C49.74213105 65.5222293 49.74213105 65.5222293 44.00488281 61.65527344 C40.42025782 57.98337062 37.88797712 53.62096356 35.33398438 49.19824219 C33.22722048 45.72655439 30.68957406 42.64009901 28.125 39.5 C27.27098659 38.42903317 26.41934843 37.35616714 25.5703125 36.28125 C25.16200195 35.76433594 24.75369141 35.24742187 24.33300781 34.71484375 C21.84277348 31.51128955 19.42242324 28.25496802 17 25 C14.40221928 37.63286257 12.05375159 50.26674012 10 63 C3.73 63 -2.54 63 -9 63 C-9 52.87438914 -9 52.87438914 -8.28149414 48.4519043 C-8.12455582 47.46445724 -7.96761749 46.47701019 -7.80592346 45.4596405 C-7.63407028 44.42495132 -7.4622171 43.39026215 -7.28515625 42.32421875 C-7.10995956 41.23663773 -6.93476288 40.1490567 -6.7542572 39.02851868 C-6.19692317 35.58040635 -5.62964725 32.13401023 -5.0625 28.6875 C-4.68493818 26.35361401 -4.30797909 24.01963044 -3.93164062 21.68554688 C-3.57085851 19.46084888 -3.20954885 17.23623637 -2.84765625 15.01171875 C-2.6778273 13.96690842 -2.50799835 12.92209808 -2.33302307 11.84562683 C-2.17293259 10.87394058 -2.0128421 9.90225433 -1.84790039 8.90112305 C-1.70800186 8.04890671 -1.56810333 7.19669037 -1.42396545 6.31864929 C-1.03338969 4.18260683 -0.55395677 2.09890901 0 0 Z " fill="#414040" transform="translate(613,700)"/>
<path d="M0 0 C18.107629 -1.94920654 18.107629 -1.94920654 24.234375 2.1796875 C26.32801828 4.75911075 28.16321013 7.35455158 29.87109375 10.203125 C31.86335641 13.37420052 34.27445483 16.21586595 36.625 19.125 C37.54246206 20.29784142 38.45786727 21.47229507 39.37109375 22.6484375 C42.39432897 26.52199226 45.50719276 30.32133152 48.63671875 34.109375 C50 36 50 36 50 38 C50.66 38 51.32 38 52 38 C52.03867187 37.02740234 52.03867187 37.02740234 52.078125 36.03515625 C52.77970453 23.90101942 54.99363845 11.97284591 57 0 C63.6 0 70.2 0 77 0 C76.32279901 5.41760788 75.56110462 10.75526373 74.625 16.125 C73.42493902 23.12806521 72.42165786 30.1427488 71.5 37.1875 C70.35725142 45.88361196 68.88161505 54.43264635 67 63 C48.90660569 65.10998043 48.90660569 65.10998043 42.8359375 60.703125 C40.74097433 57.88648556 38.95018325 55.10077385 37.23242188 52.05029297 C34.90156207 48.17260663 32.03161142 44.68532182 29.25 41.125 C28.19255061 39.73189054 27.13525385 38.33866521 26.078125 36.9453125 C23.1811245 33.17846998 20.12298143 29.58114337 17 26 C13.85871627 38.18437326 11.99280095 50.58798597 10 63 C3.73 63 -2.54 63 -9 63 C-9 54.00534125 -9 54.00534125 -8.30078125 50.05859375 C-8.14577148 49.15947266 -7.99076172 48.26035156 -7.83105469 47.33398438 C-7.57437012 45.90022461 -7.57437012 45.90022461 -7.3125 44.4375 C-6.94819983 42.33220731 -6.5849771 40.22672798 -6.22265625 38.12109375 C-6.02687988 36.9904248 -5.83110352 35.85975586 -5.62939453 34.69482422 C-4.45562517 27.80427904 -3.35685721 20.90155098 -2.25 14 C-2.02522599 12.60211937 -1.80037427 11.20425124 -1.57543945 9.80639648 C-1.04966718 6.5376977 -0.52452618 3.26889894 0 0 Z " fill="#424141" transform="translate(340,700)"/>
<path d="M0 0 C1.250159 -0.00143509 1.250159 -0.00143509 2.52557373 -0.00289917 C4.28381425 -0.0035773 6.04205731 -0.00174871 7.80029297 0.00244141 C10.4619728 0.00776767 13.12348181 0.00249793 15.78515625 -0.00390625 C23.99988388 -0.00679835 32.0739819 0.0662051 40.234375 1.1328125 C39.54550713 4.52172572 38.24721014 7.31292863 36.671875 10.3828125 C36.21683594 11.27484375 35.76179687 12.166875 35.29296875 13.0859375 C34.76896484 14.09914063 34.76896484 14.09914063 34.234375 15.1328125 C33.08960693 15.1421582 31.94483887 15.15150391 30.76538086 15.16113281 C26.4952992 15.20117449 22.2259273 15.26697202 17.95629883 15.34033203 C16.11264197 15.36845972 14.26886637 15.38971489 12.42504883 15.40380859 C9.76582403 15.42535241 7.10801466 15.4720592 4.44921875 15.5234375 C3.22379616 15.52528046 3.22379616 15.52528046 1.97361755 15.52716064 C-3.70726916 15.67072347 -7.08015328 16.8798441 -11.765625 20.1328125 C-16.48094316 26.78262017 -17.26837197 35.21454775 -16.765625 43.1328125 C-15.44057635 46.34082502 -14.63400771 47.70647279 -11.51098633 49.23974609 C-8.56525324 50.19799346 -6.11875732 50.44768526 -3.02734375 50.546875 C-1.42729492 50.60488281 -1.42729492 50.60488281 0.20507812 50.6640625 C1.85926758 50.71046875 1.85926758 50.71046875 3.546875 50.7578125 C5.23006836 50.81582031 5.23006836 50.81582031 6.94726562 50.875 C9.70937182 50.96902915 12.47185054 51.05199962 15.234375 51.1328125 C15.564375 47.1728125 15.894375 43.2128125 16.234375 39.1328125 C11.614375 39.1328125 6.994375 39.1328125 2.234375 39.1328125 C2.71662229 34.99926428 3.22322981 31.17739326 4.234375 27.1328125 C15.454375 27.1328125 26.674375 27.1328125 38.234375 27.1328125 C38.234375 32.15102685 38.05806374 35.92903881 37.140625 40.72265625 C36.91503906 41.91826172 36.68945312 43.11386719 36.45703125 44.34570312 C36.21855469 45.57482422 35.98007812 46.80394531 35.734375 48.0703125 C35.37666016 49.95459961 35.37666016 49.95459961 35.01171875 51.87695312 C34.42494729 54.96337101 33.83233524 58.04854628 33.234375 61.1328125 C22.31435397 65.32673362 11.49056012 65.34201923 -0.06982422 65.37304688 C-2.26177333 65.38279537 -4.45279903 65.41393901 -6.64453125 65.4453125 C-17.48837495 65.52843208 -27.01797276 64.95553114 -35.13671875 57.06640625 C-39.97207008 51.32660072 -40.31334568 45.02447945 -40.109375 37.70703125 C-39.07816823 26.98482444 -36.45965978 17.85924321 -28.765625 10.1328125 C-27.89357422 9.25689453 -27.89357422 9.25689453 -27.00390625 8.36328125 C-19.09628598 1.05983871 -10.32597754 -0.0264337 0 0 Z " fill="#444443" transform="translate(481.765625,698.8671875)"/>
<path d="M0 0 C21.45 0 42.9 0 65 0 C64 8 64 8 62 14 C47.81 14 33.62 14 19 14 C18.67 17.3 18.34 20.6 18 24 C30.21 24 42.42 24 55 24 C54 34 54 34 53 37 C40.46 37 27.92 37 15 37 C14.67 40.96 14.34 44.92 14 49 C28.85 49 43.7 49 59 49 C58.34 53.62 57.68 58.24 57 63 C35.22 63 13.44 63 -9 63 C-6.68394533 38.68142601 -6.68394533 38.68142601 -4.82275391 26.81103516 C-4.49327852 24.70707809 -4.17380679 22.6017622 -3.85546875 20.49609375 C-2.79447757 13.58403058 -1.52059688 6.84268595 0 0 Z " fill="#454444" transform="translate(241,700)"/>
<path d="M0 0 C21.45 0 42.9 0 65 0 C63 10 63 10 62 14 C47.81 14 33.62 14 19 14 C18.67 16.97 18.34 19.94 18 23 C36.315 23.495 36.315 23.495 55 24 C54 33 54 33 53 37 C40.46 37 27.92 37 15 37 C14.34 41.29 13.68 45.58 13 50 C27.85 50 42.7 50 58 50 C57 59 57 59 56 63 C34.22 63 12.44 63 -10 63 C-9.19501006 55.75509051 -8.25842934 48.58061011 -7.1875 41.375 C-7.01371826 40.20380615 -6.83993652 39.0326123 -6.66088867 37.82592773 C-2.45072049 9.80288197 -2.45072049 9.80288197 0 0 Z " fill="#434342" transform="translate(724,700)"/>
<path d="M0 0 C6.93 0 13.86 0 21 0 C21 4.51795734 20.981467 7.97723348 20.23046875 12.265625 C20.06530762 13.22879639 19.90014648 14.19196777 19.72998047 15.18432617 C19.55096191 16.19599854 19.37194336 17.2076709 19.1875 18.25 C18.81833517 20.39701942 18.44985392 22.54415649 18.08203125 24.69140625 C17.89850098 25.75504395 17.7149707 26.81868164 17.52587891 27.91455078 C16.77275556 32.33329397 16.06779963 36.7589536 15.375 41.1875 C15.25495605 41.95263916 15.13491211 42.71777832 15.01123047 43.50610352 C13.99487926 50.00212853 12.99403738 56.50052484 12 63 C4.74 63 -2.52 63 -10 63 C-8.70263799 51.43601364 -7.17381445 39.93887517 -5.39550781 28.43945312 C-4.99510536 25.84326339 -4.60284543 23.24592157 -4.2109375 20.6484375 C-3.95361134 18.97127948 -3.69581635 17.2941933 -3.4375 15.6171875 C-3.322854 14.85356903 -3.20820801 14.08995056 -3.09008789 13.30319214 C-2.91981079 12.21507736 -2.91981079 12.21507736 -2.74609375 11.10498047 C-2.64997803 10.47896942 -2.5538623 9.85295837 -2.45483398 9.20797729 C-1.81393902 6.09677284 -0.87265976 3.05430916 0 0 Z " fill="#434242" transform="translate(558,700)"/>
<path d="M0 0 C0.96802551 -0.00249756 1.93605103 -0.00499512 2.93341064 -0.00756836 C14.87832011 -0.03280106 26.76225672 0.24227413 38.69018555 0.87109375 C46.99642635 1.30180162 55.31075504 1.48201326 63.625 1.6875 C65.31185434 1.73091109 66.99870334 1.77453045 68.68554688 1.81835938 C72.72780757 1.92295194 76.77012808 2.02480253 80.8125 2.125 C80.8125 2.455 80.8125 2.785 80.8125 3.125 C69.79167722 3.15588399 58.77085922 3.17607641 47.75 3.1875 C46.52006254 3.18878403 46.52006254 3.18878403 45.26527786 3.19009399 C14.43640149 3.21849771 -16.36641161 2.85225003 -47.1875 2.125 C-47.1875 1.795 -47.1875 1.465 -47.1875 1.125 C-31.45917469 0.17791805 -15.75185382 0.0139878 0 0 Z " fill="#154990" transform="translate(390.1875,512.875)"/>
<path d="M0 0 C0.66 0.66 1.32 1.32 2 2 C-0.31 4.31 -2.62 6.62 -5 9 C-5.99 8.67 -6.98 8.34 -8 8 C-5.36 5.36 -2.72 2.72 0 0 Z " fill="#59595A" transform="translate(365,269)"/>
</svg>
